<svg width="1024" height="1024" viewBox="0 0 1024 1024" fill="none" xmlns="http://www.w3.org/2000/svg">
<rect x="16" y="16" width="992" height="992" rx="64" fill="white"/>
<rect x="16" y="16" width="992" height="992" rx="64" stroke="url(#paint0_angular_1_2)" stroke-width="32"/>
<rect x="16" y="16" width="992" height="992" rx="64" stroke="url(#paint1_angular_1_2)" stroke-width="32"/>
<rect x="48" y="48" width="928" height="928" rx="32" fill="#111111"/>
<rect x="48" y="48" width="928" height="928" rx="32" stroke="black" stroke-width="32"/>
<path d="M214.5 209H247V259.5L214.5 257.764V209ZM182 209H214.5V257.764L183.413 261.078L182 209ZM183.413 261.078L214.5 257.764V310H182L183.413 261.078ZM149.5 259.5L183.413 261.078L182 310H149.5V259.5ZM149.5 310H182V360.5H149.5V310ZM149.5 360.5H182V411H149.5V360.5ZM149.5 411H182V459.922L149.5 462.762V411ZM182 411H214.5V461.5L182 459.922V411ZM182 360.5H214.5V411H182V360.5ZM182 310H214.5V360.5H182V310ZM149.5 462.762L182 459.922V512H149.5V462.762ZM149.5 512H182V564.552L149.5 560.764V512ZM117 512H149.5V560.764L117 562.5V512ZM117 461.5L149.5 462.762V512H117V461.5ZM149.5 560.764L182 564.552V613H149.5V560.764ZM182 564.552L214.5 562.5V613H182V564.552ZM182 613H214.5V663.5H182V613ZM149.5 613H182V663.5H149.5V613ZM149.5 663.5H182V714H149.5V663.5ZM149.5 714H182V762.448L149.5 764.5V714ZM182 714H214.5V761.028L182 762.448V714ZM182 663.5H214.5V714H182V663.5ZM182 762.448L214.5 761.028V815H182V762.448ZM214.5 761.028L247 764.5V815H214.5V761.028Z" fill="#57BF37"/>
<path d="M283.327 451.4H303.653V471.6H283.327V451.4ZM263 451.4H283.327V471.6H263V451.4ZM263 471.6H283.327V491.8H263V471.6ZM283.327 471.6H303.653V491.8H283.327V471.6ZM263 431.2H283.327V451.4H263V431.2ZM283.327 411H303.653V431.2H283.327V411ZM344.307 451.4H364.634V471.6H344.307V451.4ZM323.98 451.4H344.307V471.6H323.98V451.4ZM323.98 471.6H344.307V491.8H323.98V471.6ZM344.307 471.6H364.634V491.8H344.307V471.6ZM323.98 431.2H344.307V451.4H323.98V431.2ZM344.307 411H364.634V431.2H344.307V411Z" fill="#57BF37"/>
<path d="M494.672 613H476.378V594.82H494.672V613ZM494.672 594.82H476.378V576.64H494.672V594.82ZM476.378 594.82H458.084V576.64H476.378V594.82ZM458.084 613H439.79V594.82H458.084V613ZM439.79 613H421.496V594.82H439.79V613ZM421.496 613H403.202V594.82H421.496V613ZM421.496 594.82H403.202V576.64H421.496V594.82ZM439.79 594.82H421.496V576.64H439.79V594.82ZM403.202 594.82H384.908V576.64H403.202V594.82ZM403.202 576.64H384.908V558.46H403.202V576.64ZM403.202 503.92H384.908V485.74H403.202V503.92ZM421.496 503.92H403.202V485.74H421.496V503.92ZM421.496 576.64H403.202V558.46H421.496V576.64ZM439.79 503.92H421.496V485.74H439.79V503.92ZM421.496 485.74H403.202V467.56H421.496V485.74ZM439.79 485.74H421.496V467.56H439.79V485.74ZM458.084 485.74H439.79V467.56H458.084V485.74ZM476.378 485.74H458.084V467.56H476.378V485.74ZM494.672 485.74H476.378V467.56H494.672V485.74ZM494.672 503.92H476.378V485.74H494.672V503.92ZM476.378 503.92H458.084V485.74H476.378V503.92ZM494.672 522.1H476.378V503.92H494.672V522.1ZM512.966 503.92H494.672V485.74H512.966V503.92ZM512.966 522.1H494.672V503.92H512.966V522.1ZM512.966 540.28H494.672V522.1H512.966V540.28ZM512.966 558.46H494.672V540.28H512.966V558.46ZM512.966 576.64H494.672V558.46H512.966V576.64ZM512.966 594.82H494.672V576.64H512.966V594.82ZM494.672 576.64H476.378V558.46H494.672V576.64ZM494.672 558.46H476.378V540.28H494.672V558.46ZM494.672 540.28H476.378V522.1H494.672V540.28ZM458.084 503.92H439.79V485.74H458.084V503.92ZM458.084 594.82H439.79V576.64H458.084V594.82ZM494.672 594.82H512.966V613H494.672V594.82ZM458.084 522.1H476.378V540.28H458.084V522.1ZM439.79 522.1H458.084V540.28H439.79V522.1ZM421.496 522.1H439.79V540.28H421.496V522.1ZM403.202 522.1H421.496V540.28H403.202V522.1ZM384.908 540.28H403.202V558.46H384.908V540.28ZM403.202 540.28H421.496V558.46H403.202V540.28ZM458.084 540.28H476.378V558.46H458.084V540.28ZM439.79 540.28H458.084V558.46H439.79V540.28ZM421.496 540.28H439.79V558.46H421.496V540.28Z" fill="#57BF37"/>
<path d="M531.308 485.74H549.602V503.92H531.308V485.74ZM549.602 503.92H567.896V522.1H549.602V503.92ZM531.308 503.92H549.602V522.1H531.308V503.92ZM531.308 522.1H549.602V540.28H531.308V522.1ZM549.602 522.1H567.896V540.28H549.602V522.1ZM549.602 540.28H567.896V558.46H549.602V540.28ZM567.896 540.28H586.19V558.46H567.896V540.28ZM586.19 540.28H604.484V558.46H586.19V540.28ZM604.484 522.1H622.778V540.28H604.484V522.1ZM586.19 522.1H604.484V540.28H586.19V522.1ZM567.896 522.1H586.19V540.28H567.896V522.1ZM604.484 540.28H622.778V558.46H604.484V540.28ZM622.778 540.28H641.072V558.46H622.778V540.28ZM622.778 558.46H641.072V576.64H622.778V558.46ZM604.484 558.46H622.778V576.64H604.484V558.46ZM604.484 576.64H622.778V594.82H604.484V576.64ZM622.778 576.64H641.072V594.82H622.778V576.64ZM604.484 594.82H622.778V613H604.484V594.82ZM586.19 576.64H604.484V594.82H586.19V576.64ZM567.896 576.64H586.19V594.82H567.896V576.64ZM549.602 576.64H567.896V594.82H549.602V576.64ZM531.308 576.64H549.602V594.82H531.308V576.64ZM549.602 594.82H567.896V613H549.602V594.82ZM567.896 594.82H586.19V613H567.896V594.82ZM586.19 594.82H604.484V613H586.19V594.82ZM622.778 485.74H641.072V503.92H622.778V485.74ZM604.484 485.74H622.778V503.92H604.484V485.74ZM604.484 467.56H622.778V485.74H604.484V467.56ZM586.19 467.56H604.484V485.74H586.19V467.56ZM567.896 467.56H586.19V485.74H567.896V467.56ZM549.602 467.56H567.896V485.74H549.602V467.56ZM549.602 485.74H567.896V503.92H549.602V485.74ZM567.896 485.74H586.19V503.92H567.896V485.74ZM586.19 485.74H604.484V503.92H586.19V485.74Z" fill="#57BF37"/>
<path d="M679.693 411H700.02V431.2H679.693V411ZM659.366 411H679.693V431.2H659.366V411ZM679.693 431.2H700.02V451.4H679.693V431.2ZM659.366 431.2H679.693V451.4H659.366V431.2ZM679.693 451.4H700.02V471.6H679.693V451.4ZM659.366 471.6H679.693V491.8H659.366V471.6ZM720.346 411H740.673V431.2H720.346V411ZM740.673 411H761V431.2H740.673V411ZM720.346 431.2H740.673V451.4H720.346V431.2ZM740.673 431.2H761V451.4H740.673V431.2ZM740.673 451.4H761V471.6H740.673V451.4ZM720.346 471.6H740.673V491.8H720.346V471.6Z" fill="#57BF37"/>
<path d="M809.5 209H777V259.5L809.5 257.764V209ZM842 209H809.5V257.764L840.587 261.078L842 209ZM840.587 261.078L809.5 257.764V310H842L840.587 261.078ZM874.5 259.5L840.587 261.078L842 310H874.5V259.5ZM874.5 310H842V360.5H874.5V310ZM874.5 360.5H842V411H874.5V360.5ZM874.5 411H842V459.922L874.5 462.762V411ZM842 411H809.5V461.5L842 459.922V411ZM842 360.5H809.5V411H842V360.5ZM842 310H809.5V360.5H842V310ZM874.5 462.762L842 459.922V512H874.5V462.762ZM874.5 512H842V564.552L874.5 560.764V512ZM907 512H874.5V560.764L907 562.5V512ZM907 461.5L874.5 462.762V512H907V461.5ZM874.5 560.764L842 564.552V613H874.5V560.764ZM842 564.552L809.5 562.5V613H842V564.552ZM842 613H809.5V663.5H842V613ZM874.5 613H842V663.5H874.5V613ZM874.5 663.5H842V714H874.5V663.5ZM874.5 714H842V762.448L874.5 764.5V714ZM842 714H809.5V761.028L842 762.448V714ZM842 663.5H809.5V714H842V663.5ZM842 762.448L809.5 761.028V815H842V762.448ZM809.5 761.028L777 764.5V815H809.5V761.028Z" fill="#57BF37"/>
<defs>
<radialGradient id="paint0_angular_1_2" cx="0" cy="0" r="1" gradientUnits="userSpaceOnUse" gradientTransform="translate(512 512) rotate(-90) scale(161 108.561)">
<stop offset="0.0552715" stop-color="#E0E0E0"/>
<stop offset="0.55" stop-color="#A0A0A0"/>
<stop offset="0.90681" stop-color="#E8E8E8"/>
<stop offset="0.968839" stop-color="#D0D0D0"/>
</radialGradient>
<radialGradient id="paint1_angular_1_2" cx="0" cy="0" r="1" gradientUnits="userSpaceOnUse" gradientTransform="translate(512 512) rotate(-90) scale(161 108.561)">
<stop offset="0.127895" stop-color="#E0E0E0"/>
<stop offset="0.4" stop-color="#A0A0A0"/>
<stop offset="0.641493" stop-color="#BBBBBB"/>
<stop offset="0.928097" stop-color="#E8E8E8"/>
<stop offset="0.968839" stop-color="#D0D0D0"/>
</radialGradient>
</defs>
</svg>
