<svg width="3873" height="1024" viewBox="0 0 3873 1024" fill="none" xmlns="http://www.w3.org/2000/svg">
<g clip-path="url(#clip0_5_57)">
<rect x="16" y="16" width="992" height="992" rx="64" fill="white"/>
<rect x="16" y="16" width="992" height="992" rx="64" stroke="url(#paint0_angular_5_57)" stroke-width="32"/>
<rect x="16" y="16" width="992" height="992" rx="64" stroke="url(#paint1_angular_5_57)" stroke-width="32"/>
<rect x="48" y="48" width="928" height="928" rx="32" fill="#111111"/>
<rect x="48" y="48" width="928" height="928" rx="32" stroke="black" stroke-width="32"/>
<path d="M214.5 209H247V259.5L214.5 257.764V209ZM182 209H214.5V257.764L183.413 261.078L182 209ZM183.413 261.078L214.5 257.764V310H182L183.413 261.078ZM149.5 259.5L183.413 261.078L182 310H149.5V259.5ZM149.5 310H182V360.5H149.5V310ZM149.5 360.5H182V411H149.5V360.5ZM149.5 411H182V459.922L149.5 462.762V411ZM182 411H214.5V461.5L182 459.922V411ZM182 360.5H214.5V411H182V360.5ZM182 310H214.5V360.5H182V310ZM149.5 462.762L182 459.922V512H149.5V462.762ZM149.5 512H182V564.552L149.5 560.764V512ZM117 512H149.5V560.764L117 562.5V512ZM117 461.5L149.5 462.762V512H117V461.5ZM149.5 560.764L182 564.552V613H149.5V560.764ZM182 564.552L214.5 562.5V613H182V564.552ZM182 613H214.5V663.5H182V613ZM149.5 613H182V663.5H149.5V613ZM149.5 663.5H182V714H149.5V663.5ZM149.5 714H182V762.448L149.5 764.5V714ZM182 714H214.5V761.028L182 762.448V714ZM182 663.5H214.5V714H182V663.5ZM182 762.448L214.5 761.028V815H182V762.448ZM214.5 761.028L247 764.5V815H214.5V761.028Z" fill="#57BF37"/>
<path d="M283.327 451.4H303.653V471.6H283.327V451.4ZM263 451.4H283.327V471.6H263V451.4ZM263 471.6H283.327V491.8H263V471.6ZM283.327 471.6H303.653V491.8H283.327V471.6ZM263 431.2H283.327V451.4H263V431.2ZM283.327 411H303.653V431.2H283.327V411ZM344.307 451.4H364.634V471.6H344.307V451.4ZM323.98 451.4H344.307V471.6H323.98V451.4ZM323.98 471.6H344.307V491.8H323.98V471.6ZM344.307 471.6H364.634V491.8H344.307V471.6ZM323.98 431.2H344.307V451.4H323.98V431.2ZM344.307 411H364.634V431.2H344.307V411Z" fill="#57BF37"/>
<path d="M494.672 613H476.378V594.82H494.672V613ZM494.672 594.82H476.378V576.64H494.672V594.82ZM476.378 594.82H458.084V576.64H476.378V594.82ZM458.084 613H439.79V594.82H458.084V613ZM439.79 613H421.496V594.82H439.79V613ZM421.496 613H403.202V594.82H421.496V613ZM421.496 594.82H403.202V576.64H421.496V594.82ZM439.79 594.82H421.496V576.64H439.79V594.82ZM403.202 594.82H384.908V576.64H403.202V594.82ZM403.202 576.64H384.908V558.46H403.202V576.64ZM403.202 503.92H384.908V485.74H403.202V503.92ZM421.496 503.92H403.202V485.74H421.496V503.92ZM421.496 576.64H403.202V558.46H421.496V576.64ZM439.79 503.92H421.496V485.74H439.79V503.92ZM421.496 485.74H403.202V467.56H421.496V485.74ZM439.79 485.74H421.496V467.56H439.79V485.74ZM458.084 485.74H439.79V467.56H458.084V485.74ZM476.378 485.74H458.084V467.56H476.378V485.74ZM494.672 485.74H476.378V467.56H494.672V485.74ZM494.672 503.92H476.378V485.74H494.672V503.92ZM476.378 503.92H458.084V485.74H476.378V503.92ZM494.672 522.1H476.378V503.92H494.672V522.1ZM512.966 503.92H494.672V485.74H512.966V503.92ZM512.966 522.1H494.672V503.92H512.966V522.1ZM512.966 540.28H494.672V522.1H512.966V540.28ZM512.966 558.46H494.672V540.28H512.966V558.46ZM512.966 576.64H494.672V558.46H512.966V576.64ZM512.966 594.82H494.672V576.64H512.966V594.82ZM494.672 576.64H476.378V558.46H494.672V576.64ZM494.672 558.46H476.378V540.28H494.672V558.46ZM494.672 540.28H476.378V522.1H494.672V540.28ZM458.084 503.92H439.79V485.74H458.084V503.92ZM458.084 594.82H439.79V576.64H458.084V594.82ZM494.672 594.82H512.966V613H494.672V594.82ZM458.084 522.1H476.378V540.28H458.084V522.1ZM439.79 522.1H458.084V540.28H439.79V522.1ZM421.496 522.1H439.79V540.28H421.496V522.1ZM403.202 522.1H421.496V540.28H403.202V522.1ZM384.908 540.28H403.202V558.46H384.908V540.28ZM403.202 540.28H421.496V558.46H403.202V540.28ZM458.084 540.28H476.378V558.46H458.084V540.28ZM439.79 540.28H458.084V558.46H439.79V540.28ZM421.496 540.28H439.79V558.46H421.496V540.28Z" fill="#57BF37"/>
<path d="M531.308 485.74H549.602V503.92H531.308V485.74ZM549.602 503.92H567.896V522.1H549.602V503.92ZM531.308 503.92H549.602V522.1H531.308V503.92ZM531.308 522.1H549.602V540.28H531.308V522.1ZM549.602 522.1H567.896V540.28H549.602V522.1ZM549.602 540.28H567.896V558.46H549.602V540.28ZM567.896 540.28H586.19V558.46H567.896V540.28ZM586.19 540.28H604.484V558.46H586.19V540.28ZM604.484 522.1H622.778V540.28H604.484V522.1ZM586.19 522.1H604.484V540.28H586.19V522.1ZM567.896 522.1H586.19V540.28H567.896V522.1ZM604.484 540.28H622.778V558.46H604.484V540.28ZM622.778 540.28H641.072V558.46H622.778V540.28ZM622.778 558.46H641.072V576.64H622.778V558.46ZM604.484 558.46H622.778V576.64H604.484V558.46ZM604.484 576.64H622.778V594.82H604.484V576.64ZM622.778 576.64H641.072V594.82H622.778V576.64ZM604.484 594.82H622.778V613H604.484V594.82ZM586.19 576.64H604.484V594.82H586.19V576.64ZM567.896 576.64H586.19V594.82H567.896V576.64ZM549.602 576.64H567.896V594.82H549.602V576.64ZM531.308 576.64H549.602V594.82H531.308V576.64ZM549.602 594.82H567.896V613H549.602V594.82ZM567.896 594.82H586.19V613H567.896V594.82ZM586.19 594.82H604.484V613H586.19V594.82ZM622.778 485.74H641.072V503.92H622.778V485.74ZM604.484 485.74H622.778V503.92H604.484V485.74ZM604.484 467.56H622.778V485.74H604.484V467.56ZM586.19 467.56H604.484V485.74H586.19V467.56ZM567.896 467.56H586.19V485.74H567.896V467.56ZM549.602 467.56H567.896V485.74H549.602V467.56ZM549.602 485.74H567.896V503.92H549.602V485.74ZM567.896 485.74H586.19V503.92H567.896V485.74ZM586.19 485.74H604.484V503.92H586.19V485.74Z" fill="#57BF37"/>
<path d="M679.693 411H700.02V431.2H679.693V411ZM659.366 411H679.693V431.2H659.366V411ZM679.693 431.2H700.02V451.4H679.693V431.2ZM659.366 431.2H679.693V451.4H659.366V431.2ZM679.693 451.4H700.02V471.6H679.693V451.4ZM659.366 471.6H679.693V491.8H659.366V471.6ZM720.346 411H740.673V431.2H720.346V411ZM740.673 411H761V431.2H740.673V411ZM720.346 431.2H740.673V451.4H720.346V431.2ZM740.673 431.2H761V451.4H740.673V431.2ZM740.673 451.4H761V471.6H740.673V451.4ZM720.346 471.6H740.673V491.8H720.346V471.6Z" fill="#57BF37"/>
<path d="M809.5 209H777V259.5L809.5 257.764V209ZM842 209H809.5V257.764L840.587 261.078L842 209ZM840.587 261.078L809.5 257.764V310H842L840.587 261.078ZM874.5 259.5L840.587 261.078L842 310H874.5V259.5ZM874.5 310H842V360.5H874.5V310ZM874.5 360.5H842V411H874.5V360.5ZM874.5 411H842V459.922L874.5 462.762V411ZM842 411H809.5V461.5L842 459.922V411ZM842 360.5H809.5V411H842V360.5ZM842 310H809.5V360.5H842V310ZM874.5 462.762L842 459.922V512H874.5V462.762ZM874.5 512H842V564.552L874.5 560.764V512ZM907 512H874.5V560.764L907 562.5V512ZM907 461.5L874.5 462.762V512H907V461.5ZM874.5 560.764L842 564.552V613H874.5V560.764ZM842 564.552L809.5 562.5V613H842V564.552ZM842 613H809.5V663.5H842V613ZM874.5 613H842V663.5H874.5V613ZM874.5 663.5H842V714H874.5V663.5ZM874.5 714H842V762.448L874.5 764.5V714ZM842 714H809.5V761.028L842 762.448V714ZM842 663.5H809.5V714H842V663.5ZM842 762.448L809.5 761.028V815H842V762.448ZM809.5 761.028L777 764.5V815H809.5V761.028Z" fill="#57BF37"/>
<g clip-path="url(#clip1_5_57)">
<path d="M1088 493.64C1088 468.872 1092.61 447.128 1101.82 428.408C1111.33 409.688 1124.14 395.288 1140.27 385.208C1156.4 375.128 1174.4 370.088 1194.27 370.088C1211.26 370.088 1226.1 373.544 1238.77 380.456C1251.73 387.368 1261.66 396.44 1268.58 407.672V373.544H1342.45V614.6H1268.58V580.472C1261.38 591.704 1251.3 600.776 1238.34 607.688C1225.66 614.6 1210.83 618.056 1193.84 618.056C1174.26 618.056 1156.4 613.016 1140.27 602.936C1124.14 592.568 1111.33 578.024 1101.82 559.304C1092.61 540.296 1088 518.408 1088 493.64ZM1268.58 494.072C1268.58 475.64 1263.39 461.096 1253.02 450.44C1242.94 439.784 1230.56 434.456 1215.87 434.456C1201.18 434.456 1188.66 439.784 1178.29 450.44C1168.21 460.808 1163.17 475.208 1163.17 493.64C1163.17 512.072 1168.21 526.76 1178.29 537.704C1188.66 548.36 1201.18 553.688 1215.87 553.688C1230.56 553.688 1242.94 548.36 1253.02 537.704C1263.39 527.048 1268.58 512.504 1268.58 494.072Z" fill="black"/>
<path d="M1612.32 373.544V614.6H1538.45V581.768C1530.96 592.424 1520.74 601.064 1507.78 607.688C1495.11 614.024 1481 617.192 1465.44 617.192C1447.01 617.192 1430.74 613.16 1416.63 605.096C1402.52 596.744 1391.57 584.792 1383.8 569.24C1376.02 553.688 1372.13 535.4 1372.13 514.376V373.544H1445.57V504.44C1445.57 520.568 1449.75 533.096 1458.1 542.024C1466.45 550.952 1477.68 555.416 1491.8 555.416C1506.2 555.416 1517.57 550.952 1525.92 542.024C1534.28 533.096 1538.45 520.568 1538.45 504.44V373.544H1612.32Z" fill="black"/>
<path d="M1629.1 493.64C1629.1 468.872 1633.7 447.128 1642.92 428.408C1652.42 409.688 1665.24 395.288 1681.37 385.208C1697.5 375.128 1715.5 370.088 1735.37 370.088C1751.21 370.088 1765.61 373.4 1778.57 380.024C1791.82 386.648 1802.18 395.576 1809.67 406.808V294.92H1883.54V614.6H1809.67V580.04C1802.76 591.56 1792.82 600.776 1779.86 607.688C1767.19 614.6 1752.36 618.056 1735.37 618.056C1715.5 618.056 1697.5 613.016 1681.37 602.936C1665.24 592.568 1652.42 578.024 1642.92 559.304C1633.7 540.296 1629.1 518.408 1629.1 493.64ZM1809.67 494.072C1809.67 475.64 1804.49 461.096 1794.12 450.44C1784.04 439.784 1771.66 434.456 1756.97 434.456C1742.28 434.456 1729.75 439.784 1719.38 450.44C1709.3 460.808 1704.26 475.208 1704.26 493.64C1704.26 512.072 1709.3 526.76 1719.38 537.704C1729.75 548.36 1742.28 553.688 1756.97 553.688C1771.66 553.688 1784.04 548.36 1794.12 537.704C1804.49 527.048 1809.67 512.504 1809.67 494.072Z" fill="black"/>
<path d="M2161.63 373.544L2010.43 729.08H1930.94L1986.24 606.392L1888.17 373.544H1970.68L2026.41 524.312L2081.71 373.544H2161.63Z" fill="black"/>
<path d="M2564.13 376.139L2520.16 621.963L2438.82 629.079L2387.32 476.604L2361.79 635.819L2280.88 642.897L2194.46 408.481L2268.05 402.043L2317.07 570.781L2342.5 395.529L2420.39 388.715L2476.23 555.989L2494.85 382.201L2564.13 376.139Z" fill="black"/>
<ellipse cx="2607.13" cy="583.38" rx="46.5" ry="50" fill="black"/>
<path d="M2796.65 629.072C2775.63 629.072 2756.91 625.472 2740.49 618.272C2724.08 611.072 2711.12 601.28 2701.61 588.896C2692.11 576.224 2686.78 562.112 2685.63 546.56H2758.64C2759.5 554.912 2763.39 561.68 2770.3 566.864C2777.21 572.048 2785.71 574.64 2795.79 574.64C2805 574.64 2812.06 572.912 2816.96 569.456C2822.14 565.712 2824.73 560.96 2824.73 555.2C2824.73 548.288 2821.13 543.248 2813.93 540.08C2806.73 536.624 2795.07 532.88 2778.94 528.848C2761.66 524.816 2747.26 520.64 2735.74 516.32C2724.22 511.712 2714.28 504.656 2705.93 495.152C2697.58 485.36 2693.4 472.256 2693.4 455.84C2693.4 442.016 2697.15 429.488 2704.64 418.256C2712.41 406.736 2723.64 397.664 2738.33 391.04C2753.31 384.416 2771.02 381.104 2791.47 381.104C2821.71 381.104 2845.47 388.592 2862.75 403.568C2880.32 418.544 2890.4 438.416 2892.99 463.184H2824.73C2823.58 454.832 2819.84 448.208 2813.5 443.312C2807.45 438.416 2799.39 435.968 2789.31 435.968C2780.67 435.968 2774.04 437.696 2769.44 441.152C2764.83 444.32 2762.52 448.784 2762.52 454.544C2762.52 461.456 2766.12 466.64 2773.32 470.096C2780.81 473.552 2792.33 477.008 2807.88 480.464C2825.74 485.072 2840.28 489.68 2851.52 494.288C2862.75 498.608 2872.54 505.808 2880.89 515.888C2889.53 525.68 2894 538.928 2894.28 555.632C2894.28 569.744 2890.25 582.416 2882.19 593.648C2874.41 604.592 2863.04 613.232 2848.06 619.568C2833.37 625.904 2816.24 629.072 2796.65 629.072Z" fill="black"/>
<path d="M2955.03 359.504C2942.07 359.504 2931.41 355.76 2923.06 348.272C2915 340.496 2910.97 330.992 2910.97 319.76C2910.97 308.24 2915 298.736 2923.06 291.248C2931.41 283.472 2942.07 279.584 2955.03 279.584C2967.7 279.584 2978.07 283.472 2986.13 291.248C2994.49 298.736 2998.66 308.24 2998.66 319.76C2998.66 330.992 2994.49 340.496 2986.13 348.272C2978.07 355.76 2967.7 359.504 2955.03 359.504ZM2991.75 384.56V625.616H2917.88V384.56H2991.75Z" fill="black"/>
<path d="M3250.92 501.2C3250.92 508.112 3250.48 515.312 3249.62 522.8H3082.44C3083.59 537.776 3088.34 549.296 3096.69 557.36C3105.33 565.136 3115.84 569.024 3128.23 569.024C3146.66 569.024 3159.48 561.248 3166.68 545.696H3245.3C3241.27 561.536 3233.92 575.792 3223.27 588.464C3212.9 601.136 3199.8 611.072 3183.96 618.272C3168.12 625.472 3150.4 629.072 3130.82 629.072C3107.2 629.072 3086.18 624.032 3067.75 613.952C3049.32 603.872 3034.92 589.472 3024.55 570.752C3014.18 552.032 3009 530.144 3009 505.088C3009 480.032 3014.04 458.144 3024.12 439.424C3034.48 420.704 3048.88 406.304 3067.32 396.224C3085.75 386.144 3106.92 381.104 3130.82 381.104C3154.15 381.104 3174.88 386 3193.03 395.792C3211.17 405.584 3225.28 419.552 3235.36 437.696C3245.73 455.84 3250.92 477.008 3250.92 501.2ZM3175.32 481.76C3175.32 469.088 3171 459.008 3162.36 451.52C3153.72 444.032 3142.92 440.288 3129.96 440.288C3117.57 440.288 3107.06 443.888 3098.42 451.088C3090.07 458.288 3084.88 468.512 3082.87 481.76H3175.32Z" fill="black"/>
<path d="M3359.87 381.104C3376.86 381.104 3391.7 384.56 3404.37 391.472C3417.33 398.384 3427.26 407.456 3434.18 418.688V384.56H3508.05V625.184C3508.05 647.36 3503.58 667.376 3494.66 685.232C3486.02 703.376 3472.62 717.776 3454.48 728.432C3436.62 739.088 3414.3 744.416 3387.52 744.416C3351.81 744.416 3322.86 735.92 3300.69 718.928C3278.51 702.224 3265.84 679.472 3262.67 650.672H3335.68C3337.98 659.888 3343.46 667.088 3352.1 672.272C3360.74 677.744 3371.39 680.48 3384.06 680.48C3399.33 680.48 3411.42 676.016 3420.35 667.088C3429.57 658.448 3434.18 644.48 3434.18 625.184V591.056C3426.98 602.288 3417.04 611.504 3404.37 618.704C3391.7 625.616 3376.86 629.072 3359.87 629.072C3340 629.072 3322 624.032 3305.87 613.952C3289.74 603.584 3276.93 589.04 3267.42 570.32C3258.21 551.312 3253.6 529.424 3253.6 504.656C3253.6 479.888 3258.21 458.144 3267.42 439.424C3276.93 420.704 3289.74 406.304 3305.87 396.224C3322 386.144 3340 381.104 3359.87 381.104ZM3434.18 505.088C3434.18 486.656 3428.99 472.112 3418.62 461.456C3408.54 450.8 3396.16 445.472 3381.47 445.472C3366.78 445.472 3354.26 450.8 3343.89 461.456C3333.81 471.824 3328.77 486.224 3328.77 504.656C3328.77 523.088 3333.81 537.776 3343.89 548.72C3354.26 559.376 3366.78 564.704 3381.47 564.704C3396.16 564.704 3408.54 559.376 3418.62 548.72C3428.99 538.064 3434.18 523.52 3434.18 505.088Z" fill="black"/>
<path d="M3613.76 305.936V625.616H3539.89V305.936H3613.76Z" fill="black"/>
<path d="M3872.93 501.2C3872.93 508.112 3872.5 515.312 3871.63 522.8H3704.45C3705.6 537.776 3710.35 549.296 3718.71 557.36C3727.35 565.136 3737.86 569.024 3750.24 569.024C3768.67 569.024 3781.49 561.248 3788.69 545.696H3867.31C3863.28 561.536 3855.94 575.792 3845.28 588.464C3834.91 601.136 3821.81 611.072 3805.97 618.272C3790.13 625.472 3772.42 629.072 3752.83 629.072C3729.22 629.072 3708.19 624.032 3689.76 613.952C3671.33 603.872 3656.93 589.472 3646.56 570.752C3636.19 552.032 3631.01 530.144 3631.01 505.088C3631.01 480.032 3636.05 458.144 3646.13 439.424C3656.5 420.704 3670.9 406.304 3689.33 396.224C3707.76 386.144 3728.93 381.104 3752.83 381.104C3776.16 381.104 3796.9 386 3815.04 395.792C3833.19 405.584 3847.3 419.552 3857.38 437.696C3867.75 455.84 3872.93 477.008 3872.93 501.2ZM3797.33 481.76C3797.33 469.088 3793.01 459.008 3784.37 451.52C3775.73 444.032 3764.93 440.288 3751.97 440.288C3739.59 440.288 3729.07 443.888 3720.43 451.088C3712.08 458.288 3706.9 468.512 3704.88 481.76H3797.33Z" fill="black"/>
</g>
</g>
<defs>
<radialGradient id="paint0_angular_5_57" cx="0" cy="0" r="1" gradientUnits="userSpaceOnUse" gradientTransform="translate(512 512) rotate(-90) scale(161 108.561)">
<stop offset="0.0552715" stop-color="#E0E0E0"/>
<stop offset="0.55" stop-color="#A0A0A0"/>
<stop offset="0.90681" stop-color="#E8E8E8"/>
<stop offset="0.968839" stop-color="#D0D0D0"/>
</radialGradient>
<radialGradient id="paint1_angular_5_57" cx="0" cy="0" r="1" gradientUnits="userSpaceOnUse" gradientTransform="translate(512 512) rotate(-90) scale(161 108.561)">
<stop offset="0.127895" stop-color="#E0E0E0"/>
<stop offset="0.4" stop-color="#A0A0A0"/>
<stop offset="0.641493" stop-color="#BBBBBB"/>
<stop offset="0.928097" stop-color="#E8E8E8"/>
<stop offset="0.968839" stop-color="#D0D0D0"/>
</radialGradient>
<clipPath id="clip0_5_57">
<rect width="3872.93" height="1024" fill="white"/>
</clipPath>
<clipPath id="clip1_5_57">
<rect width="2784.93" height="466.832" fill="white" transform="translate(1088 278.584)"/>
</clipPath>
</defs>
</svg>
